<?xml version="1.0" encoding="UTF-8" standalone="no"?>
<!-- Created with Inkscape (http://www.inkscape.org/) -->

<svg
   width="1024"
   height="1024"
   viewBox="0 0 270.93333 270.93333"
   version="1.1"
   id="svg1"
   inkscape:version="1.4.2 (ebf0e940, 2025-05-08)"
   sodipodi:docname="logo_grademein.svg"
   inkscape:export-filename="logo_grademein_flattened.svg"
   inkscape:export-xdpi="96"
   inkscape:export-ydpi="96"
   xmlns:inkscape="http://www.inkscape.org/namespaces/inkscape"
   xmlns:sodipodi="http://sodipodi.sourceforge.net/DTD/sodipodi-0.dtd"
   xmlns="http://www.w3.org/2000/svg"
   xmlns:svg="http://www.w3.org/2000/svg">
  <sodipodi:namedview
     id="namedview1"
     pagecolor="#ffffff"
     bordercolor="#000000"
     borderopacity="0.25"
     inkscape:showpageshadow="2"
     inkscape:pageopacity="0.0"
     inkscape:pagecheckerboard="0"
     inkscape:deskcolor="#d1d1d1"
     inkscape:document-units="mm"
     showguides="true"
     inkscape:zoom="0.56458124"
     inkscape:cx="747.45664"
     inkscape:cy="509.22698"
     inkscape:window-width="1312"
     inkscape:window-height="714"
     inkscape:window-x="0"
     inkscape:window-y="38"
     inkscape:window-maximized="0"
     inkscape:current-layer="layer1">
    <sodipodi:guide
       position="213.85555,75.504142"
       orientation="1,0"
       id="guide2"
       inkscape:locked="false" />
    <sodipodi:guide
       position="134.85788,141.78009"
       orientation="0,-1"
       id="guide3"
       inkscape:locked="false" />
  </sodipodi:namedview>
  <defs
     id="defs1" />
  <g
     inkscape:label="Layer 1"
     inkscape:groupmode="layer"
     id="layer1">
    <text
       xml:space="preserve"
       style="font-size:246.337px;text-align:start;writing-mode:lr-tb;direction:ltr;text-anchor:start;display:none;fill:#000000;stroke-width:0.410562"
       x="50.110931"
       y="221.43837"
       id="text1"><tspan
         sodipodi:role="line"
         id="tspan1"
         style="font-style:normal;font-variant:normal;font-weight:600;font-stretch:normal;font-size:246.337px;font-family:'IBM Plex Sans';-inkscape-font-specification:'IBM Plex Sans Semi-Bold';stroke-width:0.410562"
         x="50.110931"
         y="221.43837">G</tspan></text>
    <text
       xml:space="preserve"
       style="font-size:246.337px;text-align:start;writing-mode:lr-tb;direction:ltr;text-anchor:start;display:none;fill:#000000;stroke-width:0.410562"
       x="50.111031"
       y="-49.49506"
       id="text1-3"
       transform="scale(1,-1)"><tspan
         id="tspan1-2"
         style="font-style:normal;font-variant:normal;font-weight:600;font-stretch:normal;font-size:246.337px;font-family:'IBM Plex Sans';-inkscape-font-specification:'IBM Plex Sans Semi-Bold';stroke-width:0.410562"
         x="50.111031"
         y="-49.49506"
         sodipodi:role="line">G</tspan></text>
    <path
       id="text1-2"
       style="font-weight:600;font-size:246.337px;font-family:'IBM Plex Sans';-inkscape-font-specification:'IBM Plex Sans Semi-Bold';display:inline;stroke-width:0.410562"
       d="m 139.53102,46.539278 c -15.27289,0 -28.65686,3.448703 -40.15259,10.346139 -11.495727,6.897436 -20.446312,16.997243 -26.851074,30.299442 -6.404762,13.302201 -9.606649,29.560511 -9.606649,48.774801 0,19.21429 3.120132,35.39033 9.360669,48.5283 6.240537,13.13797 14.698009,23.07324 25.372612,29.80645 10.674602,6.73321 22.745322,10.10016 36.211742,10.10016 0.92793,0 1.84245,-0.0143 2.7435,-0.0429 0.96632,0.0285 1.94037,0.0429 2.9223,0.0429 15.2729,0 28.41057,-3.44871 39.41362,-10.34614 11.00305,-6.73321 16.59862,-14.8375 21.38577,-24.58816 2.95892,-6.02685 3.77635,-11.99307 3.94079,-19.7528 0.21398,-10.09735 -21.83219,0 -21.83219,0 -3.12027,7.55433 -8.32964,13.71285 -14.57018,18.47536 -6.1923,4.88866 -18.02914,7.35195 -28.10216,7.38973 -4.84885,-0.0197 -9.35217,-0.59812 -13.50925,-1.7353 -3.15136,-0.88752 -6.11707,-2.11577 -8.89713,-3.68401 -2.8658,-1.58373 -5.45427,-3.53101 -7.76594,-5.84202 -2.55573,-2.56926 -4.76248,-5.54905 -6.61975,-8.94002 -0.1332,-0.24337 -0.26448,-0.48909 -0.39429,-0.73691 -0.002,-0.003 -0.003,-0.006 -0.005,-0.009 -3.445531,-6.89569 -5.168679,-15.35024 -5.168679,-25.36331 v -27.59005 c 0,-10.18193 1.724612,-18.6394 5.173329,-25.372608 3.61295,-6.897436 8.53945,-12.070232 14.77998,-15.51895 6.40477,-3.612943 13.79477,-5.419307 22.17022,-5.419307 10.18193,0 18.39362,2.462989 24.63415,7.38973 6.24054,4.762515 10.92074,10.921024 14.04101,18.475355 L 204.56426,85.706913 C 198.48795,73.225838 189.9482,63.618628 178.94515,56.885417 167.9421,49.987981 154.80392,46.539278 139.53102,46.539278 Z"
       sodipodi:nodetypes="ssssssscscascccccccccssccsccccs" />
    <path
       style="font-weight:600;font-size:246.337px;font-family:'IBM Plex Sans';-inkscape-font-specification:'IBM Plex Sans Semi-Bold';stroke-width:0.410562"
       d="m 177.9553,129.15324 0,26.26222 h 42.24222 v 22.05174 h -65.03297 l 0,-48.31396 z"
       id="text2"
       aria-label="G"
       sodipodi:nodetypes="ccccccc" />
    <path
       style="font-weight:600;font-size:246.337px;font-family:'IBM Plex Sans';-inkscape-font-specification:'IBM Plex Sans Semi-Bold';stroke-width:0.36167"
       d="m 172.35199,146.97787 43.46368,-25.6468 11.20662,18.99187 -43.46368,25.64679 z"
       id="text2-7"
       aria-label="G"
       sodipodi:nodetypes="ccccc" />
  </g>
</svg>
